<svg width="22" height="20" viewBox="0 0 22 20" fill="none" xmlns="http://www.w3.org/2000/svg">
<rect width="22" height="2" rx="1" fill="#444444"/>
<path fill-rule="evenodd" clip-rule="evenodd" d="M1 2C0.447723 2 0 2.44769 0 3V19C0 19.5523 0.447723 20 1 20H21C21.5523 20 22 19.5523 22 19V3C22 2.44769 21.5523 2 21 2H1ZM1.75 3.25C1.47385 3.25 1.25 3.47388 1.25 3.75V18.25C1.25 18.5261 1.47385 18.75 1.75 18.75H20.25C20.5262 18.75 20.75 18.5261 20.75 18.25V3.75C20.75 3.47388 20.5262 3.25 20.25 3.25H1.75Z" fill="#444444"/>
<rect y="1" width="22" height="2" fill="#444444"/>
<path d="M11 14V9" stroke="#444444" stroke-width="1.5" stroke-linecap="round" stroke-linejoin="round"/>
<path d="M13.5 11.5L11 11.4826L8.5 11.5" stroke="#444444" stroke-width="1.5" stroke-linecap="round" stroke-linejoin="round"/>
</svg>
